<svg width="175" height="22" viewBox="0 0 175 22" fill="none" xmlns="http://www.w3.org/2000/svg">
<path d="M17.515 18.165V21H0.435V18.725L12.685 3.92H0.645V1.12H17.13V3.395L4.88 18.165H17.515ZM22.8591 1.12H26.2541V9.52H37.1391V1.12H40.5341V21H37.1391V12.32H26.2541V21H22.8591V1.12ZM48.3817 1.12H51.7767V21H48.3817V1.12ZM73.0581 10.955H76.3481V18.725C75.3914 19.5417 74.2364 20.1717 72.8831 20.615C71.5298 21.0583 70.1298 21.28 68.6831 21.28C66.6064 21.28 64.7281 20.8367 63.0481 19.95C61.3914 19.0633 60.0848 17.85 59.1281 16.31C58.1948 14.7467 57.7281 12.9967 57.7281 11.06C57.7281 9.12333 58.1948 7.385 59.1281 5.845C60.0614 4.28167 61.3564 3.05667 63.0131 2.17C64.6698 1.28333 66.5131 0.839999 68.5431 0.839999C72.0431 0.839999 74.7148 1.87833 76.5581 3.955L74.3881 6.16C72.8714 4.57333 70.9464 3.78 68.6131 3.78C67.1898 3.78 65.9064 4.095 64.7631 4.725C63.6431 5.33167 62.7564 6.195 62.1031 7.315C61.4731 8.41167 61.1581 9.66 61.1581 11.06C61.1581 12.4367 61.4731 13.685 62.1031 14.805C62.7564 15.9017 63.6548 16.765 64.7981 17.395C65.9648 18.025 67.2714 18.34 68.7181 18.34C70.3981 18.34 71.8448 17.9667 73.0581 17.22V10.955ZM96.2035 16.275H85.5285L83.4285 21H80.1035L89.2035 1.12H92.5635L101.698 21H98.2685L96.2035 16.275ZM95.0135 13.58L90.8835 4.2L86.7185 13.58H95.0135ZM119.417 21L115.147 15.05C114.96 15.0733 114.657 15.085 114.237 15.085H109.512V21H106.117V1.12H114.237C116.873 1.12 118.95 1.73833 120.467 2.975C121.983 4.21167 122.742 5.92667 122.742 8.12C122.742 9.63667 122.357 10.9317 121.587 12.005C120.84 13.0783 119.767 13.8833 118.367 14.42L123.092 21H119.417ZM114.027 12.32C115.753 12.32 117.06 11.9583 117.947 11.235C118.857 10.5117 119.312 9.47333 119.312 8.12C119.312 6.76667 118.857 5.72833 117.947 5.005C117.06 4.28167 115.753 3.92 114.027 3.92H109.512V12.32H114.027ZM129.213 1.12H137.858C140.074 1.12 142.011 1.52833 143.668 2.345C145.324 3.16167 146.596 4.32833 147.483 5.845C148.393 7.33833 148.848 9.07667 148.848 11.06C148.848 13.0433 148.393 14.7933 147.483 16.31C146.596 17.8033 145.324 18.9583 143.668 19.775C142.011 20.5917 140.074 21 137.858 21H129.213V1.12ZM137.718 18.165C140.144 18.165 142.034 17.535 143.388 16.275C144.741 14.9917 145.418 13.2533 145.418 11.06C145.418 8.84333 144.741 7.105 143.388 5.845C142.034 4.56167 140.144 3.92 137.718 3.92H132.608V18.165H137.718ZM163.798 21.28C161.768 21.28 159.924 20.8367 158.268 19.95C156.611 19.0633 155.316 17.85 154.383 16.31C153.449 14.7467 152.983 12.9967 152.983 11.06C152.983 9.12333 153.449 7.385 154.383 5.845C155.316 4.28167 156.611 3.05667 158.268 2.17C159.924 1.28333 161.768 0.839999 163.798 0.839999C165.851 0.839999 167.694 1.28333 169.328 2.17C170.984 3.05667 172.279 4.28167 173.213 5.845C174.146 7.385 174.613 9.12333 174.613 11.06C174.613 12.9967 174.146 14.7467 173.213 16.31C172.279 17.85 170.984 19.0633 169.328 19.95C167.694 20.8367 165.851 21.28 163.798 21.28ZM163.798 18.34C165.198 18.34 166.458 18.025 167.578 17.395C168.698 16.765 169.573 15.9017 170.203 14.805C170.856 13.7083 171.183 12.46 171.183 11.06C171.183 9.66 170.856 8.41167 170.203 7.315C169.573 6.21833 168.698 5.355 167.578 4.725C166.458 4.095 165.198 3.78 163.798 3.78C162.398 3.78 161.138 4.095 160.018 4.725C158.898 5.355 158.011 6.21833 157.358 7.315C156.728 8.41167 156.413 9.66 156.413 11.06C156.413 12.46 156.728 13.7083 157.358 14.805C158.011 15.9017 158.898 16.765 160.018 17.395C161.138 18.025 162.398 18.34 163.798 18.34Z" fill="#252324"/>
</svg>
